<svg xmlns="http://www.w3.org/2000/svg" viewBox="0 0 165.29 239.07">
  <title>Asset 4</title>
  <g id="Layer_2" data-name="Layer 2">
    <g id="Layer_1-2" data-name="Layer 1">
      <g>
        <path d="M35.78,153.45a5.8,5.8,0,0,0-7.49,8.86l48.5,41v23.93c-19.56-1.44-37.1-9.74-48.71-23.27-28.06-32.69-15-79.66.85-113.31C37,73.44,51,53.57,63.38,37.77a5.8,5.8,0,0,0-9.12-7.17C41.47,46.87,27,67.5,18.44,85.69c-24.87,52.7-24.58,96.21.84,125.82,14.82,17.26,37.65,27.31,62.66,27.56h0c2.83,0,6.4-2.56,6.4-6.26V200.6a5.81,5.81,0,0,0-2.06-4.44Z" fill="#66806a"/>
        <path d="M124.43,117,82.68,150.71,40.56,116a5.8,5.8,0,0,0-7.38,9c.65.53,45.45,37.46,46.13,37.95a5.78,5.78,0,0,0,7-.21L131.73,126a5.8,5.8,0,0,0-7.3-9Z" fill="#66806a"/>
        <path d="M52.6,84.52A5.81,5.81,0,0,0,45,93.29l13.86,12a5.8,5.8,0,1,0,7.61-8.76Z" fill="#66806a"/>
        <path d="M98.73,189a5.82,5.82,0,0,0,8.17.83l33.23-27.13a5.8,5.8,0,1,0-7.34-9L99.56,180.83A5.81,5.81,0,0,0,98.73,189Z" fill="#66806a"/>
        <path d="M146.85,85.69C131.14,52.4,95.15,11.93,87.14,2.14A5.81,5.81,0,0,0,76.88,6.41c-.15.89-.09-5.55-.09,110,0,5.48,6.44,7.27,9.88,4.56L121,93.78a5.8,5.8,0,0,0-7.19-9.11l-25.46,20.1V21.66c13.86,16.6,36.67,45,48,69,15.87,33.65,28.9,80.62.84,113.31-8.89,10.37-18.54,17.71-32.79,21.23a5.8,5.8,0,1,0,2.79,11.26c16.6-4.1,28.33-12.72,38.8-24.93C171.42,181.9,171.71,138.39,146.85,85.69Z" fill="#66806a"/>
      </g>
    </g>
  </g>
</svg>
